HIERARCHY
ROOT Hips
{
    OFFSET   0.000000   0.000000   0.000000
    CHANNELS 6 Xposition Yposition Zposition Zrotation Xrotation Yrotation
    JOINT Chest
    {
        OFFSET   0.000000   8.007230   0.000000
        CHANNELS 3 Zrotation Xrotation Yrotation
        JOINT Chest2
        {
            OFFSET   0.000000  22.077100   0.000000
            CHANNELS 3 Zrotation Xrotation Yrotation
            JOINT Neck
            {
                OFFSET   0.000000  23.254700   0.000000
                CHANNELS 3 Zrotation Xrotation Yrotation
                JOINT Head
                {
                    OFFSET   0.000010  14.370000   1.956610
                    CHANNELS 3 Zrotation Xrotation Yrotation
                    End Site
                    {
                        OFFSET   0.000000  19.566000   0.000000
                    }
                }
            }
            JOINT LeftCollar
            {
                OFFSET   3.911900  19.017000  -0.467063
                CHANNELS 3 Zrotation Xrotation Yrotation
                JOINT LeftShoulder
                {
                    OFFSET  10.383700   0.000000   0.000000
                    CHANNELS 3 Zrotation Xrotation Yrotation
                    JOINT LeftElbow
                    {
                        OFFSET  26.662100   0.001671   0.000522
                        CHANNELS 3 Zrotation Xrotation Yrotation
                        JOINT LeftWrist
                        {
                            OFFSET  28.869000   0.000037  -0.000114
                            CHANNELS 3 Zrotation Xrotation Yrotation
                            JOINT LeftFinger0
                            {
                                OFFSET   2.044650  -2.323450   3.252850
                                CHANNELS 3 Zrotation Xrotation Yrotation
                                JOINT LeftFinger01
                                {
                                    OFFSET   3.088140   0.000000   0.000000
                                    CHANNELS 3 Zrotation Xrotation Yrotation
                                    JOINT LeftFinger02
                                    {
                                        OFFSET   2.639460   0.000000   0.000000
                                        CHANNELS 3 Zrotation Xrotation Yrotation
                                        End Site
                                        {
                                            OFFSET   2.582190   0.000000   0.000000
                                        }
                                    }
                                }
                            }
                            JOINT LeftFinger1
                            {
                                OFFSET   8.364480   0.000000   3.252850
                                CHANNELS 3 Zrotation Xrotation Yrotation
                                JOINT LeftFinger11
                                {
                                    OFFSET   4.646930   0.000000   0.000000
                                    CHANNELS 3 Zrotation Xrotation Yrotation
                                    JOINT LeftFinger12
                                    {
                                        OFFSET   2.323470   0.000000   0.000000
                                        CHANNELS 3 Zrotation Xrotation Yrotation
                                        End Site
                                        {
                                            OFFSET   2.273050   0.000000   0.000000
                                        }
                                    }
                                }
                            }
                            JOINT LeftFinger2
                            {
                                OFFSET   8.364490   0.000016   1.078090
                                CHANNELS 3 Zrotation Xrotation Yrotation
                                JOINT LeftFinger21
                                {
                                    OFFSET   5.111620   0.000000   0.000000
                                    CHANNELS 3 Zrotation Xrotation Yrotation
                                    JOINT LeftFinger22
                                    {
                                        OFFSET   2.788150   0.000013   0.000000
                                        CHANNELS 3 Zrotation Xrotation Yrotation
                                        End Site
                                        {
                                            OFFSET   2.727660   0.000000   0.000000
                                        }
                                    }
                                }
                            }
                            JOINT LeftFinger3
                            {
                                OFFSET   7.899780   0.000016  -1.078090
                                CHANNELS 3 Zrotation Xrotation Yrotation
                                JOINT LeftFinger31
                                {
                                    OFFSET   4.646930   0.000000   0.000000
                                    CHANNELS 3 Zrotation Xrotation Yrotation
                                    JOINT LeftFinger32
                                    {
                                        OFFSET   2.323470   0.000000   0.000000
                                        CHANNELS 3 Zrotation Xrotation Yrotation
                                        End Site
                                        {
                                            OFFSET   2.273050   0.000000   0.000000
                                        }
                                    }
                                }
                            }
                            JOINT LeftFinger4
                            {
                                OFFSET   7.435080   0.000000  -3.252850
                                CHANNELS 3 Zrotation Xrotation Yrotation
                                JOINT LeftFinger41
                                {
                                    OFFSET   3.717550   0.000000   0.000000
                                    CHANNELS 3 Zrotation Xrotation Yrotation
                                    JOINT LeftFinger42
                                    {
                                        OFFSET   1.858760   0.000000   0.000000
                                        CHANNELS 3 Zrotation Xrotation Yrotation
                                        End Site
                                        {
                                            OFFSET   1.818440   0.000000   0.000000
                                        }
                                    }
                                }
                            }
                        }
                    }
                }
            }
            JOINT RightCollar
            {
                OFFSET  -3.911900  19.017000  -0.467064
                CHANNELS 3 Zrotation Xrotation Yrotation
                JOINT RightShoulder
                {
                    OFFSET -10.383700   0.000000   0.000000
                    CHANNELS 3 Zrotation Xrotation Yrotation
                    JOINT RightElbow
                    {
                        OFFSET -26.662100   0.001633   0.000260
                        CHANNELS 3 Zrotation Xrotation Yrotation
                        JOINT RightWrist
                        {
                            OFFSET -28.869000  -0.000045  -0.000080
                            CHANNELS 3 Zrotation Xrotation Yrotation
                            JOINT RightFinger0
                            {
                                OFFSET  -2.044660  -2.323490   3.252850
                                CHANNELS 3 Zrotation Xrotation Yrotation
                                JOINT RightFinger01
                                {
                                    OFFSET  -3.088140   0.000000   0.000000
                                    CHANNELS 3 Zrotation Xrotation Yrotation
                                    JOINT RightFinger02
                                    {
                                        OFFSET  -2.639450   0.000000   0.000000
                                        CHANNELS 3 Zrotation Xrotation Yrotation
                                        End Site
                                        {
                                            OFFSET  -2.582190   0.000000   0.000000
                                        }
                                    }
                                }
                            }
                            JOINT RightFinger1
                            {
                                OFFSET  -8.364480   0.000000   3.252850
                                CHANNELS 3 Zrotation Xrotation Yrotation
                                JOINT RightFinger11
                                {
                                    OFFSET  -4.646920   0.000000   0.000000
                                    CHANNELS 3 Zrotation Xrotation Yrotation
                                    JOINT RightFinger12
                                    {
                                        OFFSET  -2.323470   0.000000   0.000000
                                        CHANNELS 3 Zrotation Xrotation Yrotation
                                        End Site
                                        {
                                            OFFSET  -2.273050   0.000000   0.000000
                                        }
                                    }
                                }
                            }
                            JOINT RightFinger2
                            {
                                OFFSET  -8.364480   0.000000   1.078090
                                CHANNELS 3 Zrotation Xrotation Yrotation
                                JOINT RightFinger21
                                {
                                    OFFSET  -5.111610   0.000000   0.000000
                                    CHANNELS 3 Zrotation Xrotation Yrotation
                                    JOINT RightFinger22
                                    {
                                        OFFSET  -2.788160   0.000000   0.000000
                                        CHANNELS 3 Zrotation Xrotation Yrotation
                                        End Site
                                        {
                                            OFFSET  -2.727660   0.000000   0.000000
                                        }
                                    }
                                }
                            }
                            JOINT RightFinger3
                            {
                                OFFSET  -7.899780   0.000000  -1.078090
                                CHANNELS 3 Zrotation Xrotation Yrotation
                                JOINT RightFinger31
                                {
                                    OFFSET  -4.646930   0.000000   0.000000
                                    CHANNELS 3 Zrotation Xrotation Yrotation
                                    JOINT RightFinger32
                                    {
                                        OFFSET  -2.323470   0.000000   0.000000
                                        CHANNELS 3 Zrotation Xrotation Yrotation
                                        End Site
                                        {
                                            OFFSET  -2.273050   0.000000   0.000000
                                        }
                                    }
                                }
                            }
                            JOINT RightFinger4
                            {
                                OFFSET  -7.435090   0.000000  -3.252850
                                CHANNELS 3 Zrotation Xrotation Yrotation
                                JOINT RightFinger41
                                {
                                    OFFSET  -3.717550   0.000000   0.000000
                                    CHANNELS 3 Zrotation Xrotation Yrotation
                                    JOINT RightFinger42
                                    {
                                        OFFSET  -1.858760   0.000000   0.000000
                                        CHANNELS 3 Zrotation Xrotation Yrotation
                                        End Site
                                        {
                                            OFFSET  -1.818440   0.000000   0.000000
                                        }
                                    }
                                }
                            }
                        }
                    }
                }
            }
        }
    }
    JOINT LeftHip
    {
        OFFSET   9.782990   0.000000   0.000000
        CHANNELS 3 Zrotation Xrotation Yrotation
        JOINT LeftKnee
        {
            OFFSET  -0.000063 -41.789100   0.001657
            CHANNELS 3 Zrotation Xrotation Yrotation
            JOINT LeftAnkle
            {
                OFFSET   0.000078 -41.133200  -0.000113
                CHANNELS 3 Zrotation Xrotation Yrotation
                JOINT LeftToe
                {
                    OFFSET   0.000000  -6.358970  14.674500
                    CHANNELS 3 Zrotation Xrotation Yrotation
                    End Site
                    {
                        OFFSET   0.000000   0.000000   3.913200
                    }
                }
            }
        }
    }
    JOINT RightHip
    {
        OFFSET  -9.782990   0.000000   0.000000
        CHANNELS 3 Zrotation Xrotation Yrotation
        JOINT RightKnee
        {
            OFFSET   0.000053 -41.789200   0.000277
            CHANNELS 3 Zrotation Xrotation Yrotation
            JOINT RightAnkle
            {
                OFFSET   0.000030 -41.133200  -0.000150
                CHANNELS 3 Zrotation Xrotation Yrotation
                JOINT RightToe
                {
                    OFFSET   0.000000  -6.358960  14.674500
                    CHANNELS 3 Zrotation Xrotation Yrotation
                    End Site
                    {
                        OFFSET   0.000000   0.000000   3.913200
                    }
                }
            }
        }
    }
}
MOTION
Frames: 4
Frame Time:   0.016667
  7.393820  89.781300  -0.639083   3.080370 -22.420000  11.898600  -3.827650  17.015800  10.607300 -11.807700  32.889600  24.040900   4.800920  -3.291700   0.276497   7.956870  -6.536040 -31.577700  -6.701700 -14.693300   0.758416 -58.880400  33.026800 -20.214600  -0.839152  -4.311480 -14.669800  11.489700  -1.334580   5.029190  41.718000  38.541200 -70.646300 -32.412900   0.000000   0.000044 -11.206500   0.002935   0.000000 -30.451400   5.009490  -8.435880 -25.218400   0.002287   0.006224 -17.652900  -0.002801   0.003682 -28.210900  -1.744040   3.246930 -33.889100   0.002058  -0.000154 -22.570100  -0.003600   0.000548 -27.718900  -1.716140   3.262000 -30.605100   0.000796  -0.000253 -20.382900   0.001118   0.003430 -27.918900  -1.728350   3.258970 -41.954100   0.000849  -0.000261 -27.941400   0.000578   0.000400   7.354190 -10.513100  16.646300  22.224100   2.099800  79.679100  -5.994350   1.540440  -0.001780   0.385661  19.142300  -3.452630 -15.970100  39.841100  56.266900  82.264800   0.003708  -0.026965  48.128400   0.003306  -0.005068  -5.830900  -3.356470  29.828600  -0.000000   0.008261   0.001243   0.000001   0.005795  -0.013683  89.000000  -0.000886   0.001316  97.952600  -0.002773  -0.001351  73.464400   0.000681   0.003102  88.991600  -5.001300  -0.087853  93.183700  -0.004877  -0.001332  69.887800  -0.000662   0.001886  88.980100  -9.999630  -0.173912 109.992000  -0.005709  -0.001293  80.000000   0.001268  -0.001506  -1.305910  23.580800   7.976830  -0.408597   0.124497  -4.284870  -2.488950  -0.505182  -8.428920  -0.000000   0.000000   0.000000  -2.169530  16.993200   0.862525  -1.072070  19.654400 -16.799300   5.447180 -10.629100  -4.423720   0.000000   0.000000   0.000000
  7.385270  89.811500  -0.552396   3.097380 -22.367900  12.053700  -3.857270  17.004300  10.638400 -11.878000  32.855600  24.118000   4.767730  -3.359670   0.279751   7.906330  -6.670650 -31.595700  -6.741770 -14.683600   0.739758 -59.303100  32.314000 -19.759900  -0.830784  -3.914630 -14.682900  11.590000  -1.615830   5.079980  41.091900  37.891200 -70.085500 -32.497600   0.000000  -0.000000 -11.248800   0.002915   0.000000 -30.681800   5.013760  -8.378490 -25.404400   0.002493   0.006331 -17.783100  -0.002849   0.003963 -28.257300  -1.789730   3.325250 -34.307300   0.001986  -0.000153 -22.848700  -0.003578   0.000499 -27.783100  -1.762210   3.340080 -30.993300   0.000777  -0.000252 -20.641500   0.001098   0.003397 -28.207800  -1.788090   3.329010 -42.390800   0.000849  -0.000262 -28.232200   0.000579   0.000352   7.330440 -10.491000  16.626100  22.219600   2.075870  79.794700  -5.934980   1.477260  -0.001723   0.426079  19.374900  -3.491260 -15.969100  39.794800  56.339900  82.282500   0.003662  -0.026748  48.140100   0.003326  -0.005143  -5.943910  -3.420960  29.821700  -0.000000   0.008747   0.001209   0.000001   0.006136  -0.013452  89.000000  -0.001036   0.001369  97.939500  -0.002723  -0.001235  73.454700   0.000638   0.003021  88.991600  -5.001300  -0.087860  93.236200  -0.004738  -0.001240  69.927100  -0.000666   0.002524  88.979800  -9.999700  -0.174200 109.992000  -0.005593  -0.001196  80.000000   0.001374  -0.001539  -1.273610  23.602900   7.927470  -0.410085   0.095134  -4.327270  -2.556850  -0.498660  -8.492050  -0.000000   0.000000   0.000000  -2.160040  17.061900   0.815685  -1.053030  19.650800 -16.860800   5.467230 -10.637400  -4.459470  -0.000000   0.000000   0.000000
  7.375030  89.837300  -0.458034   3.119770 -22.303100  12.180200  -3.888750  16.986100  10.646300 -11.942100  32.811200  24.143300   4.744220  -3.416470   0.283096   7.870010  -6.783610 -31.492000  -6.717160 -14.706700   0.775218 -59.594600  31.897400 -19.330000  -0.920722  -3.947840 -14.854900  11.506000  -2.098030   5.048460  40.765800  37.556800 -69.915600 -32.510800   0.000000   0.000040 -11.255400   0.002893  -0.000000 -30.847800   5.018080  -8.331450 -25.538200   0.002695   0.006439 -17.876800  -0.002892   0.004245 -28.295700  -1.832240   3.399290 -34.653100   0.001914  -0.000153 -23.078900  -0.003560   0.000448 -27.838100  -1.805030   3.413820 -31.324500   0.000757  -0.000256 -20.862100   0.001075   0.003367 -28.497000  -1.844490   3.393170 -42.827300   0.000848  -0.000262 -28.523000   0.000578   0.000309   7.277630 -10.449300  16.585700  22.676800   2.136610  79.925500  -6.050840   1.629570  -0.001775   0.404571  19.584700  -3.435860 -16.020100  39.889200  56.102700  82.225800   0.003613  -0.025974  48.102400   0.003345  -0.005220  -6.148360  -3.538380  29.809800   0.000033   0.009227   0.001165   0.000001   0.006470  -0.013213  89.000000  -0.001179   0.001424  97.869600  -0.002674  -0.001125  73.402300   0.000588   0.002937  88.991500  -5.001290  -0.087860  93.156100  -0.004584  -0.001163  69.867100  -0.000670   0.003186  88.979400  -9.999760  -0.174494 109.992000  -0.005477  -0.001105  80.000000   0.001479  -0.001572  -1.240230  23.621600   7.863780  -0.429124   0.061617  -4.375620  -2.619960  -0.501013  -8.504800  -0.000000   0.000000  -0.000000  -2.165800  17.151700   0.790089  -1.028500  19.570600 -16.930100   5.513260 -10.658200  -4.459370   0.000000   0.000000   0.000000
  7.363330  89.858300  -0.363483   3.140010 -22.232400  12.280000  -3.922390  16.963700  10.646300 -12.002900  32.760300  24.142100   4.732240  -3.468780   0.286734   7.852300  -6.889370 -31.309700  -6.678110 -14.729800   0.828324 -59.798400  31.631700 -18.919200  -1.021970  -4.039300 -15.137000  11.313800  -2.563270   4.981420  40.689700  37.437700 -69.900000 -32.512700   0.000000   0.000080 -11.256400   0.002868  -0.000000 -30.934800   5.019390  -8.305280 -25.608100   0.002894   0.006545 -17.925700  -0.002932   0.004528 -28.317100  -1.857110   3.442870 -34.846000   0.001843  -0.000153 -23.207400  -0.003544   0.000399 -27.869200  -1.830070   3.457210 -31.511900   0.000738  -0.000259 -20.986900   0.001051   0.003337 -28.670600  -1.877660   3.430490 -43.089100   0.000848  -0.000260 -28.697400   0.000578   0.000267   7.220370 -10.395600  16.541700  23.313700   2.242550  80.017000  -6.232010   1.860320  -0.001827   0.313975  19.706900  -3.330450 -16.070300  39.982900  55.864500  82.169100   0.003562  -0.025270  48.064800   0.003361  -0.005300  -6.289350  -3.619420  29.801700   0.000066   0.009702   0.001117   0.000002   0.006801  -0.012961  89.000000  -0.001320   0.001476  97.814700  -0.002630  -0.001019  73.361100   0.000530   0.002849  88.991500  -5.001280  -0.087860  93.076100  -0.004421  -0.001095  69.807000  -0.000680   0.003861  88.979100  -9.999820  -0.174788 109.992000  -0.005361  -0.001018  80.000000   0.001585  -0.001602  -1.208500  23.633600   7.794090  -0.454810   0.041496  -4.421180  -2.663870  -0.517596  -8.506650  -0.000000   0.000000   0.000000  -2.173880  17.253600   0.767552  -1.012690  19.423900 -16.992900   5.561650 -10.680900  -4.456840   0.000000   0.000000   0.000000
